# xmcd
#
# Track frame offsets: 
#        150
#        16071
#        33288
#        48178
#        69857
#        83239
#        97368
#        113300
#        126999
#        142975
#        160865
#        177182
#        191491
#        208499
#        228446
#        245962
#        261744
#        277063
#        298060
#        315416
#        328864
#        343216
#
# Disc length: 4789 seconds
#
# Revision: 1
# Processed by: cddbd v1.5.2PL0 Copyright (c) Steve Scherf et al.
# Submitted via: ExactAudioCopyFreeDBPlugin 1.0
#
DISCID=5112b316
DTITLE=Vaya Con Dios - Whats A Woman
DYEAR=1987
DGENRE=Jazz
TTITLE0=What will come of this
TTITLE1=What's A Woman
TTITLE2=Lord help me please
TTITLE3=Lulu's Song
TTITLE4=One Silver Dollar
TTITLE5=Far Gone Now
TTITLE6=Philadelphia
TTITLE7=Pack Your Memories
TTITLE8=Travelling light
TTITLE9=Forever blue
TTITLE10=Still A Man
TTITLE11=Farewell song
TTITLE12=Hot August Night
TTITLE13=Call on me
TTITLE14=Get To You
TTITLE15=Movin' On
TTITLE16=Paradise
TTITLE17=Don't Hate You Anymore (Zugabe)
TTITLE18=Mind On Vation (Zugabe)
TTITLE19=Loui (Zugabe)
TTITLE20=Listen (Zugabe)
TTITLE21=Lay Your Hands (Zugabe)
EXTD=YEAR: 1987
EXTT0=
EXTT1=
EXTT2=
EXTT3=
EXTT4=
EXTT5=
EXTT6=
EXTT7=
EXTT8=
EXTT9=
EXTT10=
EXTT11=
EXTT12=
EXTT13=
EXTT14=
EXTT15=
EXTT16=
EXTT17=
EXTT18=
EXTT19=
EXTT20=
EXTT21=
PLAYORDER=
